inDegrees=yes
name=ik_S56_A09_T01
DataType=double
version=3
OpenSimVersion=4.3-2021-08-27-4bc7ad9
endheader
time	pelvis_tilt	pelvis_list	pelvis_rotation	pelvis_tx	pelvis_ty	pelvis_tz	hip_flexion_r	hip_adduction_r	hip_rotation_r	knee_angle_r	knee_angle_r_beta	ankle_angle_r	subtalar_angle_r	mtp_angle_r	hip_flexion_l	hip_adduction_l	hip_rotation_l	knee_angle_l	knee_angle_l_beta	ankle_angle_l	subtalar_angle_l	mtp_angle_l	lumbar_extension	lumbar_bending	lumbar_rotation	arm_flex_r	arm_add_r	arm_rot_r	elbow_flex_r	pro_sup_r	wrist_flex_r	wrist_dev_r	arm_flex_l	arm_add_l	arm_rot_l	elbow_flex_l	pro_sup_l	wrist_flex_l	wrist_dev_l
13.5799999999998	-7.479827150115893	-4.969111234556077	25.66659676798749	0	0.9399999999999999	0	34.28901095391194	-11.30737691603918	-9.648265389450961	48.98337269649537	0.8549211322853372	0	0	0	34.28901095391194	-11.30737691603918	-9.648265389450961	48.98337269649537	0.8549211322853372	0	0	0	-6.650007215970097	-1.926214319448208	14.07562863403689	61.67497752494583	-15.32447513557792	18.9514939190782	57.27170839919077	105.3779615546913	0	0	59.77912387328239	-2.626834971727884	10.82979138299995	61.59199389653034	89.51550969365687	0	0
13.5999999999998	-7.468433487495842	-4.973846914113948	25.57809256740798	0	0.9399999999999999	0	34.29276484543893	-11.30580541008539	-9.648536216534437	48.9847663464012	0.8549454560648141	0	0	0	34.29276484543893	-11.30580541008539	-9.648536216534437	48.9847663464012	0.8549454560648141	0	0	0	-6.640153765970517	-1.939400677103509	14.09858735166583	61.67610403115456	-15.26113995926432	18.9639826845807	57.22794775064516	105.4569312396938	0	0	59.77694403760983	-2.236899488559999	11.07206038287103	61.34084572579979	89.85687475626949	0	0
13.6199999999998	-7.460258706064709	-4.976530863119798	25.52298486260652	0	0.9399999999999999	0	34.29618242823987	-11.30437519447642	-9.648782755511242	48.98603477556406	0.8549675943300343	0	0	0	34.29618242823987	-11.30437519447642	-9.648782755511242	48.98603477556406	0.8549675943300343	0	0	0	-6.631712769109384	-1.950504083169491	14.1298084384818	61.81512995089204	-15.60052315208406	18.76108938070803	57.30438434129545	105.3013091953207	0	0	59.82708441827968	-2.163397709764709	11.11098981811355	61.23839501004864	89.90655079018852	0	0
13.6399999999998	-7.443549177217837	-4.978314086705362	25.44823709939944	0	0.9399999999999999	0	34.30049528025281	-11.30258553094266	-9.649092232882241	48.98764742913242	0.8549957404444962	0	0	0	34.30049528025281	-11.30258553094266	-9.649092232882241	48.98764742913242	0.8549957404444962	0	0	0	-6.614667586137589	-1.964861543932644	14.16692137759627	61.90717915024965	-15.75208168890626	18.78453299141285	57.48970240598312	106.0107028864179	0	0	60.00646492664713	-1.94706232107867	10.93588746679738	61.00432939937721	91.14898740850197	0	0
13.6599999999998	-7.428563912727323	-4.99045510030331	25.40348649939722	0	0.9399999999999999	0	34.30391362108369	-11.30116462047066	-9.649337821320893	48.98892278473974	0.8550179995989777	0	0	0	34.30391362108369	-11.30116462047066	-9.649337821320893	48.98892278473974	0.8550179995989777	0	0	0	-6.604660066248331	-1.986079331626493	14.18916310812871	62.01067533949949	-15.86491542284169	18.76830613324731	57.67774962853654	106.3068270671095	0	0	60.15409984845085	-1.876692026529015	10.98315436869662	60.76933495358918	91.63406503599566	0	0
13.6799999999998	-7.414083844346986	-4.972992669061055	25.35855152415275	0	0.9399999999999999	0	34.30764663549218	-11.29960856607249	-9.649606535816972	48.99031084561808	0.8550422258315229	0	0	0	34.30764663549218	-11.29960856607249	-9.649606535816972	48.99031084561808	0.8550422258315229	0	0	0	-6.581079444354055	-1.983260012287231	14.23166748761416	62.14001396494136	-16.01757484391524	18.72642578703187	57.89393386117275	106.7721160248978	0	0	60.23504181398457	-1.736972804727672	11.18117712451687	60.46352424203215	91.75817127331661	0	0
13.6999999999998	-7.406363053630262	-4.963664682127562	25.29699316832965	0	0.9399999999999999	0	34.3107499834036	-11.29831739678862	-9.649829682754785	48.99146616766946	0.8550623900052403	0	0	0	34.3107499834036	-11.29831739678862	-9.649829682754785	48.99146616766946	0.8550623900052403	0	0	0	-6.564363888862301	-1.990013900954194	14.30953353418299	62.35804451840338	-16.25097315532835	18.55807820991863	58.16143941391859	107.6482658205666	0	0	60.27318694863902	-1.574776972060598	11.49499930050338	60.35608824479444	91.69486555738605	0	0
13.7199999999998	-7.392055769665391	-4.954471087475596	25.21325610707926	0	0.9399999999999999	0	34.31468917177779	-11.29668406369407	-9.65011234243568	48.99293661698712	0.8550880541873173	0	0	0	34.31468917177779	-11.29668406369407	-9.65011234243568	48.99293661698712	0.8550880541873173	0	0	0	-6.542925321152012	-1.997203878228253	14.36939578735935	62.62096947317362	-16.47355882188448	18.35856294113437	58.48780641076713	108.7870266712117	0	0	60.24143528820338	-1.611765267780436	11.48883307041389	60.33337269987976	91.69884535650041	0	0
13.7399999999998	-7.370802320641102	-4.937913947561543	25.12283292886725	0	0.9399999999999999	0	34.31962494229736	-11.29463974771167	-9.650466322399271	48.99477947556479	0.8551202181371462	0	0	0	34.31962494229736	-11.29463974771167	-9.650466322399271	48.99477947556479	0.8551202181371462	0	0	0	-6.509066095916256	-2.006914842670172	14.46978885773536	62.58451817393657	-16.48516391770406	18.26560118058512	58.94797064795407	110.0023763677693	0	0	60.21683208742375	-1.496192837926285	11.84761661184783	60.24278251007507	91.56322697276737	0	0
13.7599999999998	-7.359561292583056	-4.931228293766641	25.14265112284523	0	0.9399999999999999	0	34.32361780111201	-11.29301178009604	-9.650749808039215	48.99629264991037	0.8551466280116333	0	0	0	34.32361780111201	-11.29301178009604	-9.650749808039215	48.99629264991037	0.8551466280116333	0	0	0	-6.496919987027741	-2.004730224505275	14.46012028343865	62.55435498816761	-16.506413740613	18.2404167883901	59.40995252232492	110.384141042798	0	0	60.20793062397534	-1.4948916248397	11.86081716596822	60.25311464120975	91.56581143487495	0	0
13.7799999999998	-7.316939388685709	-4.921933221514672	25.08731708136474	0	0.9399999999999999	0	34.32675171676335	-11.29171131179533	-9.650974902305217	48.99745889656347	0.8551669828556203	0	0	0	34.32675171676335	-11.29171131179533	-9.650974902305217	48.99745889656347	0.8551669828556203	0	0	0	-6.445496190150785	-2.031801502559714	14.57552459481707	62.98967596011034	-16.97713682923889	18.05252700357216	59.65187002766876	110.1785341598071	0	0	60.21380099709202	-1.282997368203138	12.43040473861749	59.82019864301872	91.16429109622923	0	0
